<mxfile host="app.diagrams.net" modified="2023-05-11T23:32:42.434Z" agent="Mozilla/5.0 (Windows NT 10.0; Win64; x64) AppleWebKit/537.36 (KHTML, like Gecko) Chrome/113.0.0.0 Safari/537.36" etag="TcOy5UcsXMGbAbuDAAM-" version="21.2.9" type="device">
  <diagram name="Page-1" id="4v0VugBD950doRNQBEw-">
    <mxGraphModel dx="1434" dy="764" grid="1" gridSize="10" guides="1" tooltips="1" connect="1" arrows="1" fold="1" page="1" pageScale="1" pageWidth="827" pageHeight="1169" math="0" shadow="0">
      <root>
        <mxCell id="0" />
        <mxCell id="1" parent="0" />
        <mxCell id="JLtGzhH2Q6yY1cW3T13B-5" value="Usuario" style="swimlane;fontStyle=1;align=center;verticalAlign=top;childLayout=stackLayout;horizontal=1;startSize=26;horizontalStack=0;resizeParent=1;resizeParentMax=0;resizeLast=0;collapsible=1;marginBottom=0;whiteSpace=wrap;html=1;" vertex="1" parent="1">
          <mxGeometry x="170" y="80" width="160" height="130" as="geometry" />
        </mxCell>
        <mxCell id="JLtGzhH2Q6yY1cW3T13B-6" value="+ id: Integer&lt;br&gt;+ esPremium: boolean&amp;nbsp;" style="text;strokeColor=none;fillColor=none;align=left;verticalAlign=top;spacingLeft=4;spacingRight=4;overflow=hidden;rotatable=0;points=[[0,0.5],[1,0.5]];portConstraint=eastwest;whiteSpace=wrap;html=1;" vertex="1" parent="JLtGzhH2Q6yY1cW3T13B-5">
          <mxGeometry y="26" width="160" height="54" as="geometry" />
        </mxCell>
        <mxCell id="JLtGzhH2Q6yY1cW3T13B-7" value="" style="line;strokeWidth=1;fillColor=none;align=left;verticalAlign=middle;spacingTop=-1;spacingLeft=3;spacingRight=3;rotatable=0;labelPosition=right;points=[];portConstraint=eastwest;strokeColor=inherit;" vertex="1" parent="JLtGzhH2Q6yY1cW3T13B-5">
          <mxGeometry y="80" width="160" height="8" as="geometry" />
        </mxCell>
        <mxCell id="JLtGzhH2Q6yY1cW3T13B-8" value="//constructor&lt;br&gt;//getters y setters" style="text;strokeColor=none;fillColor=none;align=left;verticalAlign=top;spacingLeft=4;spacingRight=4;overflow=hidden;rotatable=0;points=[[0,0.5],[1,0.5]];portConstraint=eastwest;whiteSpace=wrap;html=1;" vertex="1" parent="JLtGzhH2Q6yY1cW3T13B-5">
          <mxGeometry y="88" width="160" height="42" as="geometry" />
        </mxCell>
        <mxCell id="JLtGzhH2Q6yY1cW3T13B-9" value="&amp;lt;&amp;lt;Interface&amp;gt;&amp;gt;&lt;br&gt;Cancion" style="swimlane;fontStyle=1;align=center;verticalAlign=top;childLayout=stackLayout;horizontal=1;startSize=40;horizontalStack=0;resizeParent=1;resizeParentMax=0;resizeLast=0;collapsible=1;marginBottom=0;whiteSpace=wrap;html=1;" vertex="1" parent="1">
          <mxGeometry x="390" y="240" width="160" height="90" as="geometry" />
        </mxCell>
        <mxCell id="JLtGzhH2Q6yY1cW3T13B-11" value="" style="line;strokeWidth=1;fillColor=none;align=left;verticalAlign=middle;spacingTop=-1;spacingLeft=3;spacingRight=3;rotatable=0;labelPosition=right;points=[];portConstraint=eastwest;strokeColor=inherit;" vertex="1" parent="JLtGzhH2Q6yY1cW3T13B-9">
          <mxGeometry y="40" width="160" height="8" as="geometry" />
        </mxCell>
        <mxCell id="JLtGzhH2Q6yY1cW3T13B-12" value="+ descargar(usuario: Usuario): String" style="text;strokeColor=none;fillColor=none;align=left;verticalAlign=top;spacingLeft=4;spacingRight=4;overflow=hidden;rotatable=0;points=[[0,0.5],[1,0.5]];portConstraint=eastwest;whiteSpace=wrap;html=1;" vertex="1" parent="JLtGzhH2Q6yY1cW3T13B-9">
          <mxGeometry y="48" width="160" height="42" as="geometry" />
        </mxCell>
        <mxCell id="JLtGzhH2Q6yY1cW3T13B-13" value="SpotifyProxy" style="swimlane;fontStyle=1;align=center;verticalAlign=top;childLayout=stackLayout;horizontal=1;startSize=26;horizontalStack=0;resizeParent=1;resizeParentMax=0;resizeLast=0;collapsible=1;marginBottom=0;whiteSpace=wrap;html=1;" vertex="1" parent="1">
          <mxGeometry x="254" y="400" width="160" height="120" as="geometry" />
        </mxCell>
        <mxCell id="JLtGzhH2Q6yY1cW3T13B-21" value="" style="endArrow=block;dashed=1;endFill=0;endSize=12;html=1;rounded=0;entryX=0.475;entryY=1.095;entryDx=0;entryDy=0;entryPerimeter=0;" edge="1" parent="JLtGzhH2Q6yY1cW3T13B-13" target="JLtGzhH2Q6yY1cW3T13B-12">
          <mxGeometry width="160" relative="1" as="geometry">
            <mxPoint x="76" as="sourcePoint" />
            <mxPoint x="236" as="targetPoint" />
          </mxGeometry>
        </mxCell>
        <mxCell id="JLtGzhH2Q6yY1cW3T13B-14" value="+ servicioDescarga: ServicioDescarga" style="text;strokeColor=none;fillColor=none;align=left;verticalAlign=top;spacingLeft=4;spacingRight=4;overflow=hidden;rotatable=0;points=[[0,0.5],[1,0.5]];portConstraint=eastwest;whiteSpace=wrap;html=1;" vertex="1" parent="JLtGzhH2Q6yY1cW3T13B-13">
          <mxGeometry y="26" width="160" height="44" as="geometry" />
        </mxCell>
        <mxCell id="JLtGzhH2Q6yY1cW3T13B-15" value="" style="line;strokeWidth=1;fillColor=none;align=left;verticalAlign=middle;spacingTop=-1;spacingLeft=3;spacingRight=3;rotatable=0;labelPosition=right;points=[];portConstraint=eastwest;strokeColor=inherit;" vertex="1" parent="JLtGzhH2Q6yY1cW3T13B-13">
          <mxGeometry y="70" width="160" height="8" as="geometry" />
        </mxCell>
        <mxCell id="JLtGzhH2Q6yY1cW3T13B-16" value="+ descargar (usuario: Usuario): String" style="text;strokeColor=none;fillColor=none;align=left;verticalAlign=top;spacingLeft=4;spacingRight=4;overflow=hidden;rotatable=0;points=[[0,0.5],[1,0.5]];portConstraint=eastwest;whiteSpace=wrap;html=1;" vertex="1" parent="JLtGzhH2Q6yY1cW3T13B-13">
          <mxGeometry y="78" width="160" height="42" as="geometry" />
        </mxCell>
        <mxCell id="JLtGzhH2Q6yY1cW3T13B-17" value="ServicioDescarga" style="swimlane;fontStyle=1;align=center;verticalAlign=top;childLayout=stackLayout;horizontal=1;startSize=26;horizontalStack=0;resizeParent=1;resizeParentMax=0;resizeLast=0;collapsible=1;marginBottom=0;whiteSpace=wrap;html=1;" vertex="1" parent="1">
          <mxGeometry x="580" y="400" width="160" height="84" as="geometry" />
        </mxCell>
        <mxCell id="JLtGzhH2Q6yY1cW3T13B-19" value="" style="line;strokeWidth=1;fillColor=none;align=left;verticalAlign=middle;spacingTop=-1;spacingLeft=3;spacingRight=3;rotatable=0;labelPosition=right;points=[];portConstraint=eastwest;strokeColor=inherit;" vertex="1" parent="JLtGzhH2Q6yY1cW3T13B-17">
          <mxGeometry y="26" width="160" height="8" as="geometry" />
        </mxCell>
        <mxCell id="JLtGzhH2Q6yY1cW3T13B-20" value="+ descargar (usuario: Usuario): String" style="text;strokeColor=none;fillColor=none;align=left;verticalAlign=top;spacingLeft=4;spacingRight=4;overflow=hidden;rotatable=0;points=[[0,0.5],[1,0.5]];portConstraint=eastwest;whiteSpace=wrap;html=1;" vertex="1" parent="JLtGzhH2Q6yY1cW3T13B-17">
          <mxGeometry y="34" width="160" height="50" as="geometry" />
        </mxCell>
        <mxCell id="JLtGzhH2Q6yY1cW3T13B-22" value="" style="endArrow=block;dashed=1;endFill=0;endSize=12;html=1;rounded=0;entryX=0.556;entryY=1.048;entryDx=0;entryDy=0;entryPerimeter=0;exitX=0.463;exitY=-0.035;exitDx=0;exitDy=0;exitPerimeter=0;" edge="1" parent="1" source="JLtGzhH2Q6yY1cW3T13B-17" target="JLtGzhH2Q6yY1cW3T13B-12">
          <mxGeometry width="160" relative="1" as="geometry">
            <mxPoint x="340" y="410" as="sourcePoint" />
            <mxPoint x="476" y="344" as="targetPoint" />
          </mxGeometry>
        </mxCell>
        <mxCell id="JLtGzhH2Q6yY1cW3T13B-24" value="" style="endArrow=block;endFill=1;html=1;edgeStyle=orthogonalEdgeStyle;align=left;verticalAlign=top;rounded=0;entryX=0.006;entryY=0.28;entryDx=0;entryDy=0;entryPerimeter=0;exitX=0.975;exitY=1;exitDx=0;exitDy=0;exitPerimeter=0;" edge="1" parent="1" source="JLtGzhH2Q6yY1cW3T13B-14" target="JLtGzhH2Q6yY1cW3T13B-20">
          <mxGeometry x="-1" relative="1" as="geometry">
            <mxPoint x="420" y="471" as="sourcePoint" />
            <mxPoint x="570" y="470" as="targetPoint" />
          </mxGeometry>
        </mxCell>
      </root>
    </mxGraphModel>
  </diagram>
</mxfile>
